<svg width="25" height="24" viewBox="0 0 25 24" fill="none" xmlns="http://www.w3.org/2000/svg">
<g id="Frame">
<g id="Vector">
<path d="M12.5 22C6.97715 22 2.5 17.5228 2.5 12C2.5 6.47715 6.97715 2 12.5 2C18.0228 2 22.5 6.47715 22.5 12C22.5 17.5228 18.0228 22 12.5 22ZM10.21 19.6674C9.24743 17.6259 8.65732 15.3742 8.52731 13H4.56189C4.958 16.1765 7.21639 18.7747 10.21 19.6674ZM10.5307 13C10.6811 15.4388 11.3778 17.7297 12.5 19.752C13.6222 17.7297 14.3189 15.4388 14.4693 13H10.5307ZM20.4381 13H16.4727C16.3427 15.3742 15.7526 17.6259 14.79 19.6674C17.7836 18.7747 20.042 16.1765 20.4381 13ZM4.56189 11H8.52731C8.65732 8.62577 9.24743 6.37407 10.21 4.33256C7.21639 5.22533 4.958 7.8235 4.56189 11ZM10.5307 11H14.4693C14.3189 8.56122 13.6222 6.27025 12.5 4.24799C11.3778 6.27025 10.6811 8.56122 10.5307 11ZM14.79 4.33256C15.7526 6.37407 16.3427 8.62577 16.4727 11H20.4381C20.042 7.8235 17.7836 5.22533 14.79 4.33256Z" fill="#2C2669"/>
<path d="M12.5 22C6.97715 22 2.5 17.5228 2.5 12C2.5 6.47715 6.97715 2 12.5 2C18.0228 2 22.5 6.47715 22.5 12C22.5 17.5228 18.0228 22 12.5 22ZM10.21 19.6674C9.24743 17.6259 8.65732 15.3742 8.52731 13H4.56189C4.958 16.1765 7.21639 18.7747 10.21 19.6674ZM10.5307 13C10.6811 15.4388 11.3778 17.7297 12.5 19.752C13.6222 17.7297 14.3189 15.4388 14.4693 13H10.5307ZM20.4381 13H16.4727C16.3427 15.3742 15.7526 17.6259 14.79 19.6674C17.7836 18.7747 20.042 16.1765 20.4381 13ZM4.56189 11H8.52731C8.65732 8.62577 9.24743 6.37407 10.21 4.33256C7.21639 5.22533 4.958 7.8235 4.56189 11ZM10.5307 11H14.4693C14.3189 8.56122 13.6222 6.27025 12.5 4.24799C11.3778 6.27025 10.6811 8.56122 10.5307 11ZM14.79 4.33256C15.7526 6.37407 16.3427 8.62577 16.4727 11H20.4381C20.042 7.8235 17.7836 5.22533 14.79 4.33256Z" fill="black" fill-opacity="0.2"/>
</g>
</g>
</svg>
