<svg width="26" height="26" viewBox="0 0 26 26" fill="none" xmlns="http://www.w3.org/2000/svg">
<g id="Frame">
<g id="Vector">
<path d="M3.24996 3.25H22.75C23.3483 3.25 23.8333 3.73503 23.8333 4.33333V21.6667C23.8333 22.265 23.3483 22.75 22.75 22.75H3.24996C2.65166 22.75 2.16663 22.265 2.16663 21.6667V4.33333C2.16663 3.73503 2.65166 3.25 3.24996 3.25ZM13.0656 12.6565L6.11778 6.75751L4.71547 8.40916L13.0792 15.5102L21.2922 8.40251L19.8744 6.76416L13.0656 12.6565Z" fill="#2C2669"/>
<path d="M3.24996 3.25H22.75C23.3483 3.25 23.8333 3.73503 23.8333 4.33333V21.6667C23.8333 22.265 23.3483 22.75 22.75 22.75H3.24996C2.65166 22.75 2.16663 22.265 2.16663 21.6667V4.33333C2.16663 3.73503 2.65166 3.25 3.24996 3.25ZM13.0656 12.6565L6.11778 6.75751L4.71547 8.40916L13.0792 15.5102L21.2922 8.40251L19.8744 6.76416L13.0656 12.6565Z" fill="black" fill-opacity="0.2"/>
</g>
</g>
</svg>
